<?xml version="1.0" encoding="UTF-8" standalone="no"?>
<!-- Created with Inkscape (http://www.inkscape.org/) -->

<svg
   xmlns:dc="http://purl.org/dc/elements/1.1/"
   xmlns:cc="http://creativecommons.org/ns#"
   xmlns:rdf="http://www.w3.org/1999/02/22-rdf-syntax-ns#"
   xmlns:svg="http://www.w3.org/2000/svg"
   xmlns="http://www.w3.org/2000/svg"
   xmlns:sodipodi="http://sodipodi.sourceforge.net/DTD/sodipodi-0.dtd"
   xmlns:inkscape="http://www.inkscape.org/namespaces/inkscape"
   width="288.05743mm"
   height="64.199646mm"
   viewBox="0 0 288.05743 64.199646"
   version="1.1"
   id="svg8022"
   inkscape:version="0.92.2 (5c3e80d, 2017-08-06)"
   sodipodi:docname="wordcastlogo_white.svg">
  <defs
     id="defs8016" />
  <sodipodi:namedview
     id="base"
     pagecolor="#ffffff"
     bordercolor="#666666"
     borderopacity="1.0"
     inkscape:pageopacity="0.0"
     inkscape:pageshadow="2"
     inkscape:zoom="0.35"
     inkscape:cx="627.53629"
     inkscape:cy="675.82483"
     inkscape:document-units="mm"
     inkscape:current-layer="g6711"
     showgrid="false"
     fit-margin-top="0"
     fit-margin-left="0"
     fit-margin-right="0"
     fit-margin-bottom="0"
     inkscape:window-width="2736"
     inkscape:window-height="1699"
     inkscape:window-x="-13"
     inkscape:window-y="-13"
     inkscape:window-maximized="1" />
  <metadata
     id="metadata8019">
    <rdf:RDF>
      <cc:Work
         rdf:about="">
        <dc:format>image/svg+xml</dc:format>
        <dc:type
           rdf:resource="http://purl.org/dc/dcmitype/StillImage" />
        <dc:title></dc:title>
      </cc:Work>
    </rdf:RDF>
  </metadata>
  <g
     inkscape:label="Ebene 1"
     inkscape:groupmode="layer"
     id="layer1"
     transform="translate(411.72017,-444.87425)">
    <g
       style="font-style:normal;font-variant:normal;font-weight:bold;font-stretch:normal;font-size:medium;line-height:1.25;font-family:sans-serif;-inkscape-font-specification:'sans-serif Bold';letter-spacing:0px;word-spacing:0px;fill:#999999;fill-opacity:1;stroke:none;stroke-width:0.73806387"
       transform="translate(2226.0065,-1111.5233)"
       id="g6711">
      <path
         inkscape:connector-curvature="0"
         style="opacity:1;fill:#ffffff;fill-opacity:1;stroke:none;stroke-width:2.16296148;stroke-linecap:butt;stroke-linejoin:round;stroke-miterlimit:4;stroke-dasharray:none;stroke-dashoffset:0;stroke-opacity:1"
         d="m -2611.1965,1556.3991 c -5.5268,-0.08 -10.8598,2.947 -13.4984,8.2424 l -11.4598,22.9981 c -3.6712,7.3674 -0.6957,16.2547 6.672,19.9259 l 22.998,11.4597 c 7.3675,3.6713 16.2542,0.6956 19.9254,-6.6719 l 11.4603,-22.9986 c 3.6712,-7.3674 0.6957,-16.2542 -6.6719,-19.9254 l -22.9986,-11.4598 c -2.0721,-1.0325 -4.2644,-1.5392 -6.427,-1.5704 z m -14.7392,19.1503 h 7.0921 l 4.9594,20.854 4.9201,-20.854 h 7.1308 l 4.9207,20.854 4.9583,-20.854 h 7.0347 l -6.7655,28.6959 h -8.5338 l -5.2085,-21.8152 -5.1511,21.8152 h -8.5338 z"
         id="rect4849-6-1-5-3-9-9-5-2-9-9-1" />
      <path
         inkscape:connector-curvature="0"
         d="m -2566.9481,1580.3928 q -3.3828,0 -5.2472,2.4986 -1.8644,2.4987 -1.8644,7.0347 0,4.5168 1.8644,7.0155 1.8644,2.4986 5.2472,2.4986 3.402,0 5.2664,-2.4986 1.8644,-2.4987 1.8644,-7.0155 0,-4.536 -1.8644,-7.0347 -1.8644,-2.4986 -5.2664,-2.4986 z m 0,-5.3625 q 6.9193,0 10.8403,3.9594 3.921,3.9594 3.921,10.9364 0,6.9578 -3.921,10.9172 -3.921,3.9594 -10.8403,3.9594 -6.9001,0 -10.8403,-3.9594 -3.921,-3.9594 -3.921,-10.9172 0,-6.977 3.921,-10.9364 3.9402,-3.9594 10.8403,-3.9594 z"
         style="font-style:normal;font-variant:normal;font-weight:bold;font-stretch:normal;font-size:39.36340714px;line-height:1.25;font-family:sans-serif;-inkscape-font-specification:'sans-serif Bold';letter-spacing:0px;word-spacing:0px;fill:#ffffff;fill-opacity:1;stroke:none;stroke-width:0.73806387"
         id="path6664-4" />
      <path
         inkscape:connector-curvature="0"
         d="m -2536.0994,1588.2732 q 2.3257,0 3.3252,-0.865 1.0187,-0.8649 1.0187,-2.8446 0,-1.9605 -1.0187,-2.8062 -0.9995,-0.8457 -3.3252,-0.8457 h -3.1137 v 7.3615 z m -3.1137,5.1126 v 10.8595 h -7.3998 v -28.6961 h 11.3016 q 5.67,0 8.3032,1.9029 2.6524,1.9028 2.6524,6.0159 0,2.8447 -1.3839,4.6706 -1.3646,1.8259 -4.1323,2.6909 1.5184,0.3459 2.71,1.576 1.2109,1.2109 2.441,3.6904 l 4.0171,8.1494 h -7.8804 l -3.4981,-7.1308 q -1.0571,-2.1526 -2.1527,-2.9407 -1.0763,-0.788 -2.883,-0.788 z"
         style="font-style:normal;font-variant:normal;font-weight:bold;font-stretch:normal;font-size:39.36340714px;line-height:1.25;font-family:sans-serif;-inkscape-font-specification:'sans-serif Bold';letter-spacing:0px;word-spacing:0px;fill:#ffffff;fill-opacity:1;stroke:none;stroke-width:0.73806387"
         id="path6666-5" />
      <path
         inkscape:connector-curvature="0"
         d="m -2508.9217,1581.1424 v 17.5098 h 2.6524 q 4.536,0 6.9194,-2.2488 2.4025,-2.2488 2.4025,-6.535 0,-4.2669 -2.3833,-6.4965 -2.3833,-2.2295 -6.9386,-2.2295 z m -7.3998,-5.5932 h 7.8034 q 6.535,0 9.7256,0.9418 3.2098,0.9226 5.497,3.1522 2.0182,1.9412 2.9984,4.4783 0.9802,2.5371 0.9802,5.7469 0,3.2483 -0.9802,5.8046 -0.9802,2.5371 -2.9984,4.4784 -2.3064,2.2295 -5.5355,3.1713 -3.229,0.9226 -9.6871,0.9226 h -7.8034 z"
         style="font-style:normal;font-variant:normal;font-weight:bold;font-stretch:normal;font-size:39.36340714px;line-height:1.25;font-family:sans-serif;-inkscape-font-specification:'sans-serif Bold';letter-spacing:0px;word-spacing:0px;fill:#ffffff;fill-opacity:1;stroke:none;stroke-width:0.73806387"
         id="path6668-4" />
      <g
         aria-label="CAST"
         style="font-style:normal;font-variant:normal;font-weight:normal;font-stretch:normal;font-size:39.36340714px;line-height:1.25;font-family:sans-serif;-inkscape-font-specification:sans-serif;letter-spacing:10.58333302px;word-spacing:0px;fill:#ffffff;fill-opacity:1;stroke:none;stroke-width:0.73806387"
         id="text7332-7-0-0-1-0-0-2-8-6-3-6-5">
        <path
           d="m -2459.6463,1577.7595 v 4.094 q -1.9605,-1.826 -4.1901,-2.7293 -2.2103,-0.9034 -4.709,-0.9034 -4.9204,0 -7.5344,3.0176 -2.614,2.9984 -2.614,8.6876 0,5.6701 2.614,8.6877 2.614,2.9983 7.5344,2.9983 2.4987,0 4.709,-0.9033 2.2296,-0.9034 4.1901,-2.7293 v 4.0555 q -2.0374,1.3839 -4.3246,2.0758 -2.268,0.6919 -4.8051,0.6919 -6.5157,0 -10.2637,-3.9786 -3.748,-3.9978 -3.748,-10.898 0,-6.9193 3.748,-10.8979 3.748,-3.9979 10.2637,-3.9979 2.5755,0 4.8435,0.6919 2.2873,0.6728 4.2862,2.0374 z"
           style="font-style:normal;font-variant:normal;font-weight:normal;font-stretch:normal;font-family:sans-serif;-inkscape-font-specification:sans-serif;letter-spacing:10.58333302px;fill:#ffffff;stroke-width:0.73806387"
           id="path836" />
        <path
           d="m -2433.4368,1579.374 -5.2664,14.2808 h 10.552 z m -2.1911,-3.8248 h 4.4015 l 10.9364,28.696 h -4.0363 l -2.614,-7.3614 h -12.9353 l -2.614,7.3614 h -4.094 z"
           style="font-style:normal;font-variant:normal;font-weight:normal;font-stretch:normal;font-family:sans-serif;-inkscape-font-specification:sans-serif;letter-spacing:10.58333302px;fill:#ffffff;stroke-width:0.73806387"
           id="path838" />
        <path
           d="m -2388.3336,1576.491 v 3.7864 q -2.2103,-1.0571 -4.1708,-1.5761 -1.9605,-0.5189 -3.7864,-0.5189 -3.1714,0 -4.9013,1.2301 -1.7106,1.2301 -1.7106,3.4981 0,1.9028 1.134,2.883 1.1533,0.9611 4.3438,1.5569 l 2.3449,0.4805 q 4.3439,0.8265 6.4004,2.9215 2.0758,2.0758 2.0758,5.5739 0,4.1709 -2.8061,6.3235 -2.787,2.1527 -8.1879,2.1527 -2.0374,0 -4.3438,-0.4613 -2.2873,-0.4612 -4.7475,-1.3646 v -3.9979 q 2.3641,1.3263 4.6321,1.999 2.268,0.6727 4.4592,0.6727 3.3251,0 5.1318,-1.307 1.8067,-1.307 1.8067,-3.7288 0,-2.1142 -1.307,-3.3059 -1.2877,-1.1916 -4.2477,-1.7875 l -2.3641,-0.4613 q -4.3438,-0.8649 -6.2851,-2.71 -1.9412,-1.8452 -1.9412,-5.1319 0,-3.8056 2.6716,-5.9968 2.6909,-2.1911 7.3999,-2.1911 2.0181,0 4.1132,0.3652 2.095,0.3652 4.2861,1.0956 z"
           style="font-style:normal;font-variant:normal;font-weight:normal;font-stretch:normal;font-family:sans-serif;-inkscape-font-specification:sans-serif;letter-spacing:10.58333302px;fill:#ffffff;stroke-width:0.73806387"
           id="path840" />
        <path
           d="m -2373.9446,1575.5492 h 24.2754 v 3.2674 h -10.1869 v 25.4286 h -3.9017 v -25.4286 h -10.1868 z"
           style="font-style:normal;font-variant:normal;font-weight:normal;font-stretch:normal;font-family:sans-serif;-inkscape-font-specification:sans-serif;letter-spacing:10.58333302px;fill:#ffffff;stroke-width:0.73806387"
           id="path842" />
      </g>
      <g
         aria-label="W"
         style="font-style:normal;font-variant:normal;font-weight:bold;font-stretch:normal;font-size:39.36340714px;line-height:1.25;font-family:sans-serif;-inkscape-font-specification:'sans-serif Bold';letter-spacing:0px;word-spacing:0px;fill:#999999;fill-opacity:1;stroke:none;stroke-width:0.73806387"
         id="text6513-9-7"
         transform="translate(-131.14525,411.68238)" />
    </g>
  </g>
</svg>
